<mxfile host="app.diagrams.net" agent="Mozilla/5.0 (Windows NT 10.0; Win64; x64) AppleWebKit/537.36 (KHTML, like Gecko) Chrome/133.0.0.0 Safari/537.36" version="26.0.15">
  <diagram name="Page-1" id="lJFblaFoVInTe6D5khm1">
    <mxGraphModel dx="733" dy="420" grid="1" gridSize="10" guides="1" tooltips="1" connect="1" arrows="1" fold="1" page="1" pageScale="1" pageWidth="850" pageHeight="1100" math="0" shadow="0">
      <root>
        <mxCell id="0" />
        <mxCell id="1" parent="0" />
        <mxCell id="xm4M14iYN7U_e2rRdHb4-39" value="" style="rounded=1;whiteSpace=wrap;html=1;dashed=1;dashPattern=8 8;" parent="1" vertex="1">
          <mxGeometry x="180" y="346" width="510" height="70" as="geometry" />
        </mxCell>
        <mxCell id="xm4M14iYN7U_e2rRdHb4-25" style="edgeStyle=orthogonalEdgeStyle;rounded=0;orthogonalLoop=1;jettySize=auto;html=1;exitX=0.5;exitY=1;exitDx=0;exitDy=0;entryX=0.5;entryY=0;entryDx=0;entryDy=0;endArrow=none;startFill=0;" parent="1" source="xm4M14iYN7U_e2rRdHb4-14" target="xm4M14iYN7U_e2rRdHb4-15" edge="1">
          <mxGeometry relative="1" as="geometry" />
        </mxCell>
        <mxCell id="xm4M14iYN7U_e2rRdHb4-14" value="&lt;b&gt;P&lt;sub&gt;0&lt;/sub&gt;&lt;/b&gt;" style="rounded=0;whiteSpace=wrap;html=1;" parent="1" vertex="1">
          <mxGeometry x="200" y="280" width="80" height="40" as="geometry" />
        </mxCell>
        <mxCell id="xm4M14iYN7U_e2rRdHb4-34" style="edgeStyle=orthogonalEdgeStyle;rounded=0;orthogonalLoop=1;jettySize=auto;html=1;exitX=0.5;exitY=1;exitDx=0;exitDy=0;endArrow=none;startFill=0;" parent="1" source="xm4M14iYN7U_e2rRdHb4-15" edge="1">
          <mxGeometry relative="1" as="geometry">
            <mxPoint x="240" y="440" as="targetPoint" />
          </mxGeometry>
        </mxCell>
        <mxCell id="xm4M14iYN7U_e2rRdHb4-15" value="M&lt;sub&gt;0&lt;/sub&gt;" style="rounded=0;whiteSpace=wrap;html=1;" parent="1" vertex="1">
          <mxGeometry x="215" y="360" width="50" height="40" as="geometry" />
        </mxCell>
        <mxCell id="xm4M14iYN7U_e2rRdHb4-26" style="edgeStyle=orthogonalEdgeStyle;rounded=0;orthogonalLoop=1;jettySize=auto;html=1;exitX=0.5;exitY=1;exitDx=0;exitDy=0;entryX=0.5;entryY=0;entryDx=0;entryDy=0;endArrow=none;startFill=0;" parent="1" source="xm4M14iYN7U_e2rRdHb4-16" target="xm4M14iYN7U_e2rRdHb4-21" edge="1">
          <mxGeometry relative="1" as="geometry" />
        </mxCell>
        <mxCell id="xm4M14iYN7U_e2rRdHb4-16" value="&lt;b&gt;P&lt;sub&gt;1&lt;/sub&gt;&lt;/b&gt;" style="rounded=0;whiteSpace=wrap;html=1;" parent="1" vertex="1">
          <mxGeometry x="320" y="280" width="80" height="40" as="geometry" />
        </mxCell>
        <mxCell id="xm4M14iYN7U_e2rRdHb4-27" style="edgeStyle=orthogonalEdgeStyle;rounded=0;orthogonalLoop=1;jettySize=auto;html=1;exitX=0.5;exitY=1;exitDx=0;exitDy=0;entryX=0.5;entryY=0;entryDx=0;entryDy=0;endArrow=none;startFill=0;" parent="1" source="xm4M14iYN7U_e2rRdHb4-17" target="xm4M14iYN7U_e2rRdHb4-23" edge="1">
          <mxGeometry relative="1" as="geometry" />
        </mxCell>
        <mxCell id="xm4M14iYN7U_e2rRdHb4-17" value="&lt;b&gt;P&lt;sub&gt;2&lt;/sub&gt;&lt;/b&gt;" style="rounded=0;whiteSpace=wrap;html=1;" parent="1" vertex="1">
          <mxGeometry x="440" y="280" width="80" height="40" as="geometry" />
        </mxCell>
        <mxCell id="xm4M14iYN7U_e2rRdHb4-28" style="edgeStyle=orthogonalEdgeStyle;rounded=0;orthogonalLoop=1;jettySize=auto;html=1;exitX=0.5;exitY=1;exitDx=0;exitDy=0;entryX=0.5;entryY=0;entryDx=0;entryDy=0;endArrow=none;startFill=0;" parent="1" source="xm4M14iYN7U_e2rRdHb4-18" target="xm4M14iYN7U_e2rRdHb4-24" edge="1">
          <mxGeometry relative="1" as="geometry" />
        </mxCell>
        <mxCell id="xm4M14iYN7U_e2rRdHb4-18" value="&lt;b&gt;P&lt;sub&gt;n&lt;/sub&gt;&lt;/b&gt;" style="rounded=0;whiteSpace=wrap;html=1;" parent="1" vertex="1">
          <mxGeometry x="590" y="280" width="80" height="40" as="geometry" />
        </mxCell>
        <mxCell id="xm4M14iYN7U_e2rRdHb4-20" value="" style="endArrow=none;dashed=1;html=1;dashPattern=1 3;strokeWidth=4;rounded=0;" parent="1" edge="1">
          <mxGeometry width="50" height="50" relative="1" as="geometry">
            <mxPoint x="539" y="302" as="sourcePoint" />
            <mxPoint x="579" y="302" as="targetPoint" />
          </mxGeometry>
        </mxCell>
        <mxCell id="xm4M14iYN7U_e2rRdHb4-35" style="edgeStyle=orthogonalEdgeStyle;rounded=0;orthogonalLoop=1;jettySize=auto;html=1;exitX=0.5;exitY=1;exitDx=0;exitDy=0;endArrow=none;startFill=0;" parent="1" source="xm4M14iYN7U_e2rRdHb4-21" edge="1">
          <mxGeometry relative="1" as="geometry">
            <mxPoint x="360" y="440" as="targetPoint" />
          </mxGeometry>
        </mxCell>
        <mxCell id="xm4M14iYN7U_e2rRdHb4-21" value="M&lt;sub&gt;1&lt;/sub&gt;" style="rounded=0;whiteSpace=wrap;html=1;" parent="1" vertex="1">
          <mxGeometry x="335" y="360" width="50" height="40" as="geometry" />
        </mxCell>
        <mxCell id="xm4M14iYN7U_e2rRdHb4-36" style="edgeStyle=orthogonalEdgeStyle;rounded=0;orthogonalLoop=1;jettySize=auto;html=1;exitX=0.5;exitY=1;exitDx=0;exitDy=0;endArrow=none;startFill=0;" parent="1" source="xm4M14iYN7U_e2rRdHb4-23" edge="1">
          <mxGeometry relative="1" as="geometry">
            <mxPoint x="480" y="440" as="targetPoint" />
          </mxGeometry>
        </mxCell>
        <mxCell id="xm4M14iYN7U_e2rRdHb4-23" value="M&lt;sub&gt;2&lt;/sub&gt;" style="rounded=0;whiteSpace=wrap;html=1;" parent="1" vertex="1">
          <mxGeometry x="455" y="360" width="50" height="40" as="geometry" />
        </mxCell>
        <mxCell id="xm4M14iYN7U_e2rRdHb4-38" style="edgeStyle=orthogonalEdgeStyle;rounded=0;orthogonalLoop=1;jettySize=auto;html=1;exitX=0.5;exitY=1;exitDx=0;exitDy=0;endArrow=none;startFill=0;" parent="1" source="xm4M14iYN7U_e2rRdHb4-24" edge="1">
          <mxGeometry relative="1" as="geometry">
            <mxPoint x="629.8867924528303" y="440" as="targetPoint" />
          </mxGeometry>
        </mxCell>
        <mxCell id="xm4M14iYN7U_e2rRdHb4-24" value="M&lt;sub&gt;n&lt;/sub&gt;" style="rounded=0;whiteSpace=wrap;html=1;" parent="1" vertex="1">
          <mxGeometry x="605" y="360" width="50" height="40" as="geometry" />
        </mxCell>
        <mxCell id="xm4M14iYN7U_e2rRdHb4-29" value="" style="shape=link;html=1;rounded=0;strokeWidth=1;" parent="1" edge="1">
          <mxGeometry width="100" relative="1" as="geometry">
            <mxPoint x="200" y="442" as="sourcePoint" />
            <mxPoint x="670" y="442" as="targetPoint" />
          </mxGeometry>
        </mxCell>
        <mxCell id="xm4M14iYN7U_e2rRdHb4-33" value="网络" style="text;html=1;align=center;verticalAlign=middle;resizable=0;points=[];autosize=1;strokeColor=none;fillColor=none;" parent="1" vertex="1">
          <mxGeometry x="420" y="442" width="50" height="30" as="geometry" />
        </mxCell>
        <mxCell id="xm4M14iYN7U_e2rRdHb4-40" value="共享内存" style="text;html=1;align=center;verticalAlign=middle;resizable=0;points=[];autosize=1;strokeColor=none;fillColor=none;" parent="1" vertex="1">
          <mxGeometry x="110" y="366" width="70" height="30" as="geometry" />
        </mxCell>
        <mxCell id="xm4M14iYN7U_e2rRdHb4-41" value="0" style="text;html=1;align=center;verticalAlign=middle;whiteSpace=wrap;rounded=0;fontSize=10;fontStyle=2" parent="1" vertex="1">
          <mxGeometry x="177" y="349" width="60" height="30" as="geometry" />
        </mxCell>
        <mxCell id="xm4M14iYN7U_e2rRdHb4-42" value="m-1" style="text;html=1;align=center;verticalAlign=middle;whiteSpace=wrap;rounded=0;fontSize=10;fontStyle=2" parent="1" vertex="1">
          <mxGeometry x="173" y="381" width="60" height="30" as="geometry" />
        </mxCell>
        <mxCell id="xm4M14iYN7U_e2rRdHb4-43" value="m" style="text;html=1;align=center;verticalAlign=middle;whiteSpace=wrap;rounded=0;fontSize=10;fontStyle=2" parent="1" vertex="1">
          <mxGeometry x="296" y="349" width="60" height="30" as="geometry" />
        </mxCell>
        <mxCell id="xm4M14iYN7U_e2rRdHb4-44" value="2m-1" style="text;html=1;align=center;verticalAlign=middle;whiteSpace=wrap;rounded=0;fontSize=10;fontStyle=2" parent="1" vertex="1">
          <mxGeometry x="292" y="380" width="60" height="30" as="geometry" />
        </mxCell>
        <mxCell id="xm4M14iYN7U_e2rRdHb4-45" value="2m" style="text;html=1;align=center;verticalAlign=middle;whiteSpace=wrap;rounded=0;fontSize=10;fontStyle=2" parent="1" vertex="1">
          <mxGeometry x="414" y="350" width="60" height="30" as="geometry" />
        </mxCell>
        <mxCell id="xm4M14iYN7U_e2rRdHb4-46" value="3m-1" style="text;html=1;align=center;verticalAlign=middle;whiteSpace=wrap;rounded=0;fontSize=10;fontStyle=2" parent="1" vertex="1">
          <mxGeometry x="411" y="380" width="60" height="30" as="geometry" />
        </mxCell>
        <mxCell id="xm4M14iYN7U_e2rRdHb4-47" value="" style="endArrow=none;dashed=1;html=1;dashPattern=1 3;strokeWidth=4;rounded=0;" parent="1" edge="1">
          <mxGeometry width="50" height="50" relative="1" as="geometry">
            <mxPoint x="540" y="381" as="sourcePoint" />
            <mxPoint x="580" y="381" as="targetPoint" />
          </mxGeometry>
        </mxCell>
        <mxCell id="xm4M14iYN7U_e2rRdHb4-48" value="(n-1)m" style="text;html=1;align=center;verticalAlign=middle;whiteSpace=wrap;rounded=0;fontSize=10;fontStyle=2" parent="1" vertex="1">
          <mxGeometry x="557" y="348" width="60" height="30" as="geometry" />
        </mxCell>
        <mxCell id="xm4M14iYN7U_e2rRdHb4-49" value="nm-1" style="text;html=1;align=center;verticalAlign=middle;whiteSpace=wrap;rounded=0;fontSize=10;fontStyle=2" parent="1" vertex="1">
          <mxGeometry x="557" y="379" width="60" height="30" as="geometry" />
        </mxCell>
        <mxCell id="BEVjOLVoBLFCqcYqU82c-3" value="" style="rounded=0;whiteSpace=wrap;html=1;fillColor=#f8cecc;strokeColor=#b85450;" vertex="1" parent="1">
          <mxGeometry x="215" y="360" width="50" height="10" as="geometry" />
        </mxCell>
        <mxCell id="BEVjOLVoBLFCqcYqU82c-4" value="" style="rounded=0;whiteSpace=wrap;html=1;fillColor=#dae8fc;strokeColor=#6c8ebf;" vertex="1" parent="1">
          <mxGeometry x="335" y="360" width="50" height="10" as="geometry" />
        </mxCell>
        <mxCell id="BEVjOLVoBLFCqcYqU82c-6" value="" style="endArrow=classic;html=1;rounded=1;curved=0;fillColor=#f8cecc;strokeColor=#b85450;exitX=0.25;exitY=1;exitDx=0;exitDy=0;" edge="1" parent="1" source="xm4M14iYN7U_e2rRdHb4-14">
          <mxGeometry width="50" height="50" relative="1" as="geometry">
            <mxPoint x="215" y="300" as="sourcePoint" />
            <mxPoint x="215" y="360" as="targetPoint" />
            <Array as="points">
              <mxPoint x="195" y="330" />
            </Array>
          </mxGeometry>
        </mxCell>
        <mxCell id="BEVjOLVoBLFCqcYqU82c-8" value="&lt;font style=&quot;font-size: 8px;&quot;&gt;&lt;b&gt;1. 访问addr = 0&lt;/b&gt;&lt;/font&gt;" style="text;html=1;align=center;verticalAlign=middle;resizable=0;points=[];autosize=1;strokeColor=none;fillColor=none;" vertex="1" parent="1">
          <mxGeometry x="141" y="316" width="80" height="30" as="geometry" />
        </mxCell>
        <mxCell id="BEVjOLVoBLFCqcYqU82c-13" value="&lt;font style=&quot;color: rgb(255, 0, 0);&quot;&gt;hit&lt;/font&gt;" style="text;html=1;align=center;verticalAlign=middle;resizable=0;points=[];autosize=1;strokeColor=none;fillColor=none;" vertex="1" parent="1">
          <mxGeometry x="200" y="336" width="40" height="30" as="geometry" />
        </mxCell>
        <mxCell id="BEVjOLVoBLFCqcYqU82c-16" value="" style="endArrow=classic;html=1;rounded=0;fillColor=#f8cecc;strokeColor=#b85450;" edge="1" parent="1">
          <mxGeometry width="50" height="50" relative="1" as="geometry">
            <mxPoint x="233" y="360" as="sourcePoint" />
            <mxPoint x="233" y="320" as="targetPoint" />
          </mxGeometry>
        </mxCell>
        <mxCell id="BEVjOLVoBLFCqcYqU82c-19" value="&lt;font style=&quot;font-size: 8px;&quot;&gt;&lt;b&gt;2. reply&lt;/b&gt;&lt;/font&gt;" style="text;html=1;align=center;verticalAlign=middle;resizable=0;points=[];autosize=1;strokeColor=none;fillColor=none;" vertex="1" parent="1">
          <mxGeometry x="205" y="320" width="50" height="30" as="geometry" />
        </mxCell>
        <mxCell id="BEVjOLVoBLFCqcYqU82c-22" value="" style="endArrow=classic;html=1;rounded=0;fillColor=#dae8fc;strokeColor=#6c8ebf;" edge="1" parent="1">
          <mxGeometry width="50" height="50" relative="1" as="geometry">
            <mxPoint x="260" y="320" as="sourcePoint" />
            <mxPoint x="260" y="360" as="targetPoint" />
          </mxGeometry>
        </mxCell>
        <mxCell id="BEVjOLVoBLFCqcYqU82c-23" value="&lt;font style=&quot;font-size: 8px;&quot;&gt;&lt;b&gt;3. 访问addr = m&lt;/b&gt;&lt;/font&gt;" style="text;html=1;align=center;verticalAlign=middle;resizable=0;points=[];autosize=1;strokeColor=none;fillColor=none;" vertex="1" parent="1">
          <mxGeometry x="240" y="320" width="80" height="30" as="geometry" />
        </mxCell>
        <mxCell id="BEVjOLVoBLFCqcYqU82c-24" value="" style="shape=mxgraph.sysml.x;strokeColor=light-dark(#FA0000,#EDEDED);" vertex="1" parent="1">
          <mxGeometry x="265" y="350" width="10" height="10" as="geometry" />
        </mxCell>
        <mxCell id="BEVjOLVoBLFCqcYqU82c-26" value="&lt;font style=&quot;color: rgb(255, 0, 0);&quot;&gt;miss&lt;/font&gt;" style="text;html=1;align=center;verticalAlign=middle;resizable=0;points=[];autosize=1;strokeColor=none;fillColor=none;" vertex="1" parent="1">
          <mxGeometry x="265" y="340" width="50" height="30" as="geometry" />
        </mxCell>
        <mxCell id="BEVjOLVoBLFCqcYqU82c-27" value="" style="endArrow=none;html=1;rounded=0;exitX=0.901;exitY=1.036;exitDx=0;exitDy=0;exitPerimeter=0;fillColor=#dae8fc;strokeColor=#6c8ebf;startFill=1;startArrow=classic;" edge="1" parent="1">
          <mxGeometry width="50" height="50" relative="1" as="geometry">
            <mxPoint x="259.05000000000007" y="400.31999999999994" as="sourcePoint" />
            <mxPoint x="339" y="400" as="targetPoint" />
            <Array as="points">
              <mxPoint x="259" y="420" />
              <mxPoint x="339" y="420" />
            </Array>
          </mxGeometry>
        </mxCell>
        <mxCell id="BEVjOLVoBLFCqcYqU82c-29" value="&lt;div&gt;&lt;font style=&quot;font-size: 8px;&quot;&gt;&lt;b&gt;4. 请求 addr = m&lt;/b&gt;&lt;/font&gt;&lt;/div&gt;" style="text;html=1;align=center;verticalAlign=middle;resizable=0;points=[];autosize=1;strokeColor=none;fillColor=none;" vertex="1" parent="1">
          <mxGeometry x="262" y="418" width="80" height="30" as="geometry" />
        </mxCell>
        <mxCell id="BEVjOLVoBLFCqcYqU82c-34" value="" style="endArrow=none;html=1;rounded=0;exitX=0.25;exitY=1;exitDx=0;exitDy=0;entryX=0.7;entryY=1.008;entryDx=0;entryDy=0;entryPerimeter=0;startFill=1;startArrow=classic;fillColor=#dae8fc;strokeColor=#6c8ebf;" edge="1" parent="1" target="xm4M14iYN7U_e2rRdHb4-15">
          <mxGeometry width="50" height="50" relative="1" as="geometry">
            <mxPoint x="349.6" y="400" as="sourcePoint" />
            <mxPoint x="250" y="430" as="targetPoint" />
            <Array as="points">
              <mxPoint x="350" y="430" />
              <mxPoint x="250" y="430" />
            </Array>
          </mxGeometry>
        </mxCell>
        <mxCell id="BEVjOLVoBLFCqcYqU82c-35" value="&lt;div&gt;&lt;font style=&quot;font-size: 8px;&quot;&gt;&lt;b&gt;5. 响应 (copy m to m-1)&lt;/b&gt;&lt;/font&gt;&lt;/div&gt;" style="text;html=1;align=center;verticalAlign=middle;resizable=0;points=[];autosize=1;strokeColor=none;fillColor=none;" vertex="1" parent="1">
          <mxGeometry x="240" y="396" width="110" height="30" as="geometry" />
        </mxCell>
        <mxCell id="BEVjOLVoBLFCqcYqU82c-36" value="" style="verticalLabelPosition=bottom;verticalAlign=top;html=1;shape=mxgraph.basic.patternFillRect;fillStyle=diagRev;step=5;fillStrokeWidth=0.2;fillStrokeColor=#dddddd;fillColor=#dae8fc;strokeColor=#6c8ebf;perimeterSpacing=1;" vertex="1" parent="1">
          <mxGeometry x="215" y="390" width="50" height="10" as="geometry" />
        </mxCell>
        <mxCell id="BEVjOLVoBLFCqcYqU82c-39" value="" style="endArrow=classic;html=1;rounded=0;entryX=0.939;entryY=0.992;entryDx=0;entryDy=0;entryPerimeter=0;fillColor=#dae8fc;strokeColor=#6c8ebf;" edge="1" parent="1" target="xm4M14iYN7U_e2rRdHb4-14">
          <mxGeometry width="50" height="50" relative="1" as="geometry">
            <mxPoint x="265" y="394.84000000000003" as="sourcePoint" />
            <mxPoint x="305" y="394.84000000000003" as="targetPoint" />
            <Array as="points">
              <mxPoint x="275" y="395" />
            </Array>
          </mxGeometry>
        </mxCell>
        <mxCell id="BEVjOLVoBLFCqcYqU82c-42" value="&lt;div&gt;&lt;font style=&quot;font-size: 8px;&quot;&gt;&lt;b&gt;6. reply m-1&lt;/b&gt;&lt;/font&gt;&lt;/div&gt;" style="text;html=1;align=center;verticalAlign=middle;resizable=0;points=[];autosize=1;strokeColor=none;fillColor=none;" vertex="1" parent="1">
          <mxGeometry x="255" y="360" width="70" height="30" as="geometry" />
        </mxCell>
      </root>
    </mxGraphModel>
  </diagram>
</mxfile>
